HIERARCHY
ROOT joint_Root
{
	OFFSET 0.0 0.0 0.0
	CHANNELS 6 Xposition Yposition Zposition Zrotation Xrotation Yrotation 
	JOINT Hips
	{
		OFFSET 4.5925 91.4895 -427.239
		CHANNELS 6 Xposition Yposition Zposition Zrotation Xrotation Yrotation 
		JOINT Spine
		{
			OFFSET 15.7357 0.0 0.0
			CHANNELS 6 Xposition Yposition Zposition Zrotation Xrotation Yrotation 
			JOINT Chest
			{
				OFFSET 8.98455 -0.406207 0.0
				CHANNELS 6 Xposition Yposition Zposition Zrotation Xrotation Yrotation 
				JOINT Neck
				{
					OFFSET 16.3773 0.0 0.0
					CHANNELS 6 Xposition Yposition Zposition Zrotation Xrotation Yrotation 
					JOINT Head
					{
						OFFSET 6.45672 0.0 0.0
						CHANNELS 6 Xposition Yposition Zposition Zrotation Xrotation Yrotation 
						End Site
						{
							OFFSET 0.0 0.0 0.0
						}
					}
				}
				JOINT Shoulder_L
				{
					OFFSET 12.9942 -0.242716 4.98039
					CHANNELS 6 Xposition Yposition Zposition Zrotation Xrotation Yrotation 
					JOINT UpperArm_L
					{
						OFFSET 5.34809 0.0 0.0
						CHANNELS 6 Xposition Yposition Zposition Zrotation Xrotation Yrotation 
						JOINT LowerArm_L
						{
							OFFSET 24.3286 1.87007e-05 0.0
							CHANNELS 6 Xposition Yposition Zposition Zrotation Xrotation Yrotation 
							JOINT Hand_L
							{
								OFFSET 22.2916 0.0 0.0
								CHANNELS 6 Xposition Yposition Zposition Zrotation Xrotation Yrotation 
								End Site
								{
									OFFSET 0.0 0.0 0.0
								}
							}
						}
					}
				}
				JOINT Shoulder_R
				{
					OFFSET 12.9945 -0.242716 -4.98039
					CHANNELS 6 Xposition Yposition Zposition Zrotation Xrotation Yrotation 
					JOINT UpperArm_R
					{
						OFFSET -5.34813 0.0 0.0
						CHANNELS 6 Xposition Yposition Zposition Zrotation Xrotation Yrotation 
						JOINT LowerArm_R
						{
							OFFSET -24.3289 0.000322201 0.0
							CHANNELS 6 Xposition Yposition Zposition Zrotation Xrotation Yrotation 
							JOINT Hand_R
							{
								OFFSET -22.2915 -0.000108084 0.0
								CHANNELS 6 Xposition Yposition Zposition Zrotation Xrotation Yrotation 
								End Site
								{
									OFFSET 0.0 0.0 0.0
								}
							}
						}
					}
				}
			}
		}
		JOINT UpperLeg_L
		{
			OFFSET -2.19248 -6.46944 0.0
			CHANNELS 6 Xposition Yposition Zposition Zrotation Xrotation Yrotation 
			JOINT LowerLeg_L
			{
				OFFSET 39.0811 0.0 -1.23785e-05
				CHANNELS 6 Xposition Yposition Zposition Zrotation Xrotation Yrotation 
				JOINT Foot_L
				{
					OFFSET 40.9854 0.0 -1.26872e-05
					CHANNELS 6 Xposition Yposition Zposition Zrotation Xrotation Yrotation 
					JOINT Toes_L
					{
						OFFSET 11.7543 0.0 0.0
						CHANNELS 6 Xposition Yposition Zposition Zrotation Xrotation Yrotation 
						End Site
						{
							OFFSET 0.0 0.0 0.0
						}
					}
				}
			}
		}
		JOINT UpperLeg_R
		{
			OFFSET -2.19251 6.46944 0.0
			CHANNELS 6 Xposition Yposition Zposition Zrotation Xrotation Yrotation 
			JOINT LowerLeg_R
			{
				OFFSET -39.0811 -0.00228153 -0.0401928
				CHANNELS 6 Xposition Yposition Zposition Zrotation Xrotation Yrotation 
				JOINT Foot_R
				{
					OFFSET -40.9854 0.0 0.0
					CHANNELS 6 Xposition Yposition Zposition Zrotation Xrotation Yrotation 
					JOINT Toes_R
					{
						OFFSET -11.7543 0.0 0.0
						CHANNELS 6 Xposition Yposition Zposition Zrotation Xrotation Yrotation 
						End Site
						{
							OFFSET 0.0 0.0 0.0
						}
					}
				}
			}
		}
	}
}
MOTION
Frames:	5
Frame Time:	0.0333333
0.000000 0.000000 0.000000 0.000000 0.000000 -0.000000 -3.688810 91.045400 -4.353950 91.383500 -1.955280 8.686690 15.735700 0.000005 -0.000001 96.504300 82.819400 -90.437400 8.984550 -0.406207 -0.000000 6.450970 1.553760 12.033000 16.377300 -0.000001 -0.000001 13.013300 -5.873400 -1.105950 6.456720 -0.000001 -0.000000 2.794580 -10.717900 15.774600 12.994200 -0.242716 4.980390 -83.349700 -11.650400 -60.001800 5.348090 -0.000007 -0.000001 -23.587500 -63.964800 -52.312900 24.328600 0.000019 0.000005 1.973520 1.627500 -50.500400 22.291600 -0.000001 0.000005 31.380200 5.136670 4.275520 12.994500 -0.242716 -4.980390 87.892400 7.730980 -74.700800 -5.348130 -0.000001 -0.000004 -56.735200 8.648150 2.188760 -24.328900 0.000322 -0.000009 -5.344290 -11.533300 -25.070000 -22.291500 -0.000108 -0.000004 24.547500 5.407930 -3.198760 -2.192480 -6.469440 -0.000000 -174.875000 -12.586100 -3.405840 39.081100 -0.000007 -0.000012 -0.134638 0.244778 28.812700 40.985400 -0.000006 -0.000013 -1.482200 7.674660 -66.171200 11.754300 -0.000000 0.000003 -0.000051 -0.000575 -16.599900 -2.192510 6.469440 -0.000001 175.319000 19.966000 176.470000 -39.081100 -0.002282 -0.040193 -0.196640 0.329831 31.223900 -40.985400 0.000008 0.000006 5.732100 14.107200 -69.684600 -11.754300 -0.000006 -0.000006 -0.002241 -0.031690 -17.861700
0.000000 0.000000 0.000000 0.000000 0.000000 -0.000000 -3.576610 90.964400 -4.280620 91.921500 -1.006460 9.072120 15.735700 0.000005 -0.000001 94.599200 82.746200 -88.093500 8.984550 -0.406207 -0.000000 6.666500 1.099020 12.933100 16.377300 -0.000001 -0.000001 13.121600 -6.559020 2.530300 6.456720 -0.000001 -0.000000 2.561130 -10.646800 14.743200 12.994200 -0.242716 4.980390 -84.874300 -10.333400 -63.436900 5.348090 -0.000007 -0.000001 -21.095600 -54.510700 -38.578400 24.328600 0.000019 0.000005 1.290730 1.343030 -43.830900 22.291600 -0.000001 0.000005 28.674800 5.081230 5.543420 12.994500 -0.242716 -4.980390 87.466700 8.968620 -74.156500 -5.348130 -0.000001 -0.000004 -54.087600 9.862520 1.090580 -24.328900 0.000322 -0.000009 -5.692120 -12.290000 -25.087700 -22.291500 -0.000108 -0.000004 22.686600 5.406950 -3.163370 -2.192480 -6.469440 -0.000000 -175.269000 -13.262600 -3.122090 39.081100 -0.000007 -0.000012 -0.127190 0.229718 28.972500 40.985400 -0.000006 -0.000013 -1.006900 9.127290 -66.223700 11.754300 -0.000000 0.000003 -0.000056 -0.000628 -16.601900 -2.192510 6.469440 -0.000001 174.492000 20.039400 176.679000 -39.081100 -0.002282 -0.040193 -0.212376 0.346303 31.914400 -40.985400 0.000008 0.000006 5.494970 13.413700 -70.061000 -11.754300 -0.000006 -0.000006 -0.001947 -0.028050 -17.713700
0.000000 0.000000 0.000000 0.000000 0.000000 -0.000000 -3.435050 90.856600 -4.166440 92.378300 -0.097960 9.587570 15.735700 0.000005 -0.000001 93.132900 82.550000 -86.193300 8.984550 -0.406207 -0.000000 7.103050 0.773571 13.816300 16.377300 -0.000001 -0.000001 12.869100 -7.231030 6.205790 6.456720 -0.000001 -0.000000 2.304720 -11.149300 13.710300 12.994200 -0.242716 4.980390 -86.456500 -8.383260 -66.991300 5.348090 -0.000007 -0.000001 -26.346800 -46.855100 -31.403000 24.328600 0.000019 0.000005 -0.491521 -0.687654 -35.836700 22.291600 -0.000001 0.000005 28.567700 5.016860 6.955390 12.994500 -0.242716 -4.980390 87.071200 10.142800 -73.800400 -5.348130 -0.000001 -0.000004 -51.563800 10.419000 0.149351 -24.328900 0.000322 -0.000009 -5.574640 -11.866900 -25.386600 -22.291500 -0.000108 -0.000004 21.205500 5.401890 -2.999060 -2.192480 -6.469440 -0.000000 -175.667000 -13.361600 -2.783200 39.081100 -0.000007 -0.000012 -0.127237 0.226494 29.326100 40.985400 -0.000006 -0.000013 -0.638501 10.010000 -66.424400 11.754300 -0.000000 0.000003 -0.000057 -0.000632 -16.602100 -2.192510 6.469440 -0.000001 173.661000 20.061300 177.060000 -39.081100 -0.002282 -0.040193 -0.228851 0.362203 32.657400 -40.985400 0.000008 0.000006 5.232880 12.739000 -70.500700 -11.754300 -0.000006 -0.000006 -0.001926 -0.027781 -17.702800
0.000000 0.000000 0.000000 0.000000 0.000000 -0.000000 -3.285760 90.731400 -4.022490 92.609700 0.719341 10.348600 15.735700 0.000005 -0.000001 91.152100 82.219700 -83.964400 8.984550 -0.406207 -0.000000 7.812170 0.317029 14.339400 16.377300 -0.000001 -0.000001 12.233600 -8.231430 9.321410 6.456720 -0.000001 -0.000000 2.227330 -11.725900 13.009900 12.994200 -0.242716 4.980390 -87.279700 -6.623570 -67.611100 5.348090 -0.000007 -0.000001 -37.666100 -41.780100 -30.287000 24.328600 0.000019 0.000005 -3.371030 -5.608350 -31.086300 22.291600 -0.000001 0.000005 26.793300 4.903100 9.335750 12.994500 -0.242716 -4.980390 86.968300 10.461300 -73.738700 -5.348130 -0.000001 -0.000004 -50.723100 11.396300 -0.854128 -24.328900 0.000322 -0.000009 -5.613590 -12.115300 -25.090400 -22.291500 -0.000108 -0.000004 21.261800 5.410770 -3.290590 -2.192480 -6.469440 -0.000000 -175.943000 -12.712100 -2.266500 39.081100 -0.000007 -0.000012 -0.128922 0.224290 29.890600 40.985400 -0.000006 -0.000013 -0.435823 10.126700 -66.801900 11.754300 -0.000000 0.000003 -0.000058 -0.000641 -16.602400 -2.192510 6.469440 -0.000001 172.957000 20.049600 177.775000 -39.081100 -0.002282 -0.040193 -0.247184 0.381010 33.321600 -40.985400 0.000008 0.000006 4.973660 12.126800 -70.930500 -11.754300 -0.000006 -0.000006 -0.001837 -0.026657 -17.657000
0.000000 0.000000 0.000000 0.000000 0.000000 -0.000000 -3.197620 90.586200 -3.864010 92.621900 1.504870 10.918900 15.735700 0.000005 -0.000001 90.417600 82.089200 -83.265500 8.984550 -0.406207 -0.000000 8.086840 0.137363 14.280600 16.377300 -0.000001 -0.000001 11.693800 -8.841720 10.307000 6.456720 -0.000001 -0.000000 2.240490 -12.468100 12.829200 12.994200 -0.242716 4.980390 -87.515900 -5.777340 -66.684800 5.348090 -0.000007 -0.000001 -49.174900 -39.275600 -32.504300 24.328600 0.000019 0.000005 -1.319370 -2.173590 -31.287900 22.291600 -0.000001 0.000005 25.211100 4.822930 10.879000 12.994500 -0.242716 -4.980390 87.112000 10.102600 -73.954900 -5.348130 -0.000001 -0.000004 -52.016000 11.087800 -0.543872 -24.328900 0.000322 -0.000009 -5.293040 -11.554700 -24.817200 -22.291500 -0.000108 -0.000004 21.834300 5.405220 -3.108120 -2.192480 -6.469440 -0.000000 -176.113000 -11.582300 -2.079800 39.081100 -0.000007 -0.000012 -0.137816 0.232428 30.665600 40.985400 -0.000006 -0.000013 -0.391378 9.796820 -67.273200 11.754300 -0.000000 0.000003 -0.000047 -0.000541 -16.598600 -2.192510 6.469440 -0.000001 172.516000 20.374800 178.341000 -39.081100 -0.002282 -0.040193 -0.260102 0.391291 33.946700 -40.985400 0.000008 0.000006 4.845430 11.775600 -71.383800 -11.754300 -0.000006 -0.000006 -0.001676 -0.024585 -17.572800
